<mxfile host="Electron" modified="2023-05-07T23:04:13.446Z" agent="Mozilla/5.0 (X11; Linux x86_64) AppleWebKit/537.36 (KHTML, like Gecko) draw.io/21.1.2 Chrome/106.0.5249.199 Electron/21.4.3 Safari/537.36" etag="R6Nz39Pu3Ao9fWhR6Wx7" version="21.1.2" type="device">
  <diagram name="Page-1" id="DqQhy5Oqdyy7kZJJTX7q">
    <mxGraphModel dx="434" dy="417" grid="1" gridSize="10" guides="1" tooltips="1" connect="1" arrows="1" fold="1" page="1" pageScale="1" pageWidth="1169" pageHeight="827" math="1" shadow="0">
      <root>
        <mxCell id="0" />
        <mxCell id="1" parent="0" />
        <mxCell id="NP0rI2Gwe6GcQP9ODAu1-2" style="edgeStyle=orthogonalEdgeStyle;rounded=1;orthogonalLoop=1;jettySize=auto;html=1;exitX=1;exitY=0.5;exitDx=0;exitDy=0;entryX=0;entryY=0.5;entryDx=0;entryDy=0;" parent="1" source="NP0rI2Gwe6GcQP9ODAu1-13" target="NP0rI2Gwe6GcQP9ODAu1-1" edge="1">
          <mxGeometry relative="1" as="geometry">
            <mxPoint x="390" y="380" as="sourcePoint" />
          </mxGeometry>
        </mxCell>
        <mxCell id="NP0rI2Gwe6GcQP9ODAu1-4" style="edgeStyle=orthogonalEdgeStyle;rounded=1;orthogonalLoop=1;jettySize=auto;html=1;entryX=0;entryY=0.5;entryDx=0;entryDy=0;" parent="1" source="NP0rI2Gwe6GcQP9ODAu1-1" target="NP0rI2Gwe6GcQP9ODAu1-6" edge="1">
          <mxGeometry relative="1" as="geometry">
            <mxPoint x="670" y="220" as="targetPoint" />
            <Array as="points">
              <mxPoint x="600" y="380" />
              <mxPoint x="600" y="340" />
            </Array>
          </mxGeometry>
        </mxCell>
        <mxCell id="NP0rI2Gwe6GcQP9ODAu1-8" style="edgeStyle=orthogonalEdgeStyle;rounded=1;orthogonalLoop=1;jettySize=auto;html=1;exitX=1;exitY=0.5;exitDx=0;exitDy=0;entryX=0;entryY=0.5;entryDx=0;entryDy=0;" parent="1" source="NP0rI2Gwe6GcQP9ODAu1-1" target="NP0rI2Gwe6GcQP9ODAu1-7" edge="1">
          <mxGeometry relative="1" as="geometry" />
        </mxCell>
        <mxCell id="NP0rI2Gwe6GcQP9ODAu1-1" value="Kinematics" style="rounded=1;whiteSpace=wrap;html=1;verticalAlign=top;" parent="1" vertex="1">
          <mxGeometry x="450" y="340" width="120" height="80" as="geometry" />
        </mxCell>
        <mxCell id="NP0rI2Gwe6GcQP9ODAu1-9" style="edgeStyle=orthogonalEdgeStyle;rounded=1;orthogonalLoop=1;jettySize=auto;html=1;entryX=-0.018;entryY=0.5;entryDx=0;entryDy=0;entryPerimeter=0;" parent="1" source="NP0rI2Gwe6GcQP9ODAu1-6" target="NP0rI2Gwe6GcQP9ODAu1-10" edge="1">
          <mxGeometry relative="1" as="geometry">
            <mxPoint x="780" y="340" as="targetPoint" />
          </mxGeometry>
        </mxCell>
        <mxCell id="NP0rI2Gwe6GcQP9ODAu1-6" value="Wheel 1/2" style="whiteSpace=wrap;html=1;rounded=1;" parent="1" vertex="1">
          <mxGeometry x="630" y="310" width="120" height="60" as="geometry" />
        </mxCell>
        <mxCell id="NP0rI2Gwe6GcQP9ODAu1-12" style="edgeStyle=orthogonalEdgeStyle;rounded=1;orthogonalLoop=1;jettySize=auto;html=1;entryX=0;entryY=0.5;entryDx=0;entryDy=0;" parent="1" source="NP0rI2Gwe6GcQP9ODAu1-7" target="NP0rI2Gwe6GcQP9ODAu1-11" edge="1">
          <mxGeometry relative="1" as="geometry" />
        </mxCell>
        <mxCell id="NP0rI2Gwe6GcQP9ODAu1-7" value="Wheel 3/4/5/6" style="whiteSpace=wrap;html=1;rounded=1;" parent="1" vertex="1">
          <mxGeometry x="630" y="390" width="120" height="60" as="geometry" />
        </mxCell>
        <mxCell id="NP0rI2Gwe6GcQP9ODAu1-10" value="`dot theta_1,dot theta_2&lt;br style=&quot;font-size: 16px;&quot;&gt;`" style="whiteSpace=wrap;html=1;rounded=1;fontStyle=1;fontSize=16;" parent="1" vertex="1">
          <mxGeometry x="798" y="319" width="84" height="42" as="geometry" />
        </mxCell>
        <mxCell id="NP0rI2Gwe6GcQP9ODAu1-11" value="`dot theta_3, dot theta_4,&amp;nbsp;dot theta_5,&amp;nbsp;dot theta_6&lt;br style=&quot;font-size: 16px;&quot;&gt;`" style="whiteSpace=wrap;html=1;rounded=1;fontStyle=1;fontSize=16;" parent="1" vertex="1">
          <mxGeometry x="798" y="399" width="142" height="42" as="geometry" />
        </mxCell>
        <mxCell id="NP0rI2Gwe6GcQP9ODAu1-13" value="`V, omega`" style="whiteSpace=wrap;html=1;rounded=1;" parent="1" vertex="1">
          <mxGeometry x="310" y="362" width="72" height="36" as="geometry" />
        </mxCell>
        <mxCell id="NP0rI2Gwe6GcQP9ODAu1-14" value="dimensions" style="whiteSpace=wrap;html=1;rounded=1;" parent="1" vertex="1">
          <mxGeometry x="455" y="384" width="70" height="30" as="geometry" />
        </mxCell>
        <mxCell id="NP0rI2Gwe6GcQP9ODAu1-15" value="`x_{c_{3,4}} = l_2 cdot cos(-b cdot&amp;nbsp;rho) + l_3 cdot sin(-b cdot&amp;nbsp;rho) - [k_7 cdot cos(beta) - k_8 cdot sin(beta)]`" style="text;html=1;align=left;verticalAlign=middle;resizable=0;points=[];autosize=1;strokeColor=none;fillColor=none;" parent="1" vertex="1">
          <mxGeometry x="250" y="510" width="590" height="30" as="geometry" />
        </mxCell>
        <mxCell id="NP0rI2Gwe6GcQP9ODAu1-16" value="`x_{c_{5,6}} = l_2 cdot cos(-b cdot&amp;nbsp;rho) + l_3 cdot sin(-b cdot&amp;nbsp;rho) + [k_7 cdot cos(beta) + k_8 cdot sin(beta)]`" style="text;html=1;align=left;verticalAlign=middle;resizable=0;points=[];autosize=1;strokeColor=none;fillColor=none;" parent="1" vertex="1">
          <mxGeometry x="250" y="540" width="600" height="30" as="geometry" />
        </mxCell>
        <mxCell id="NP0rI2Gwe6GcQP9ODAu1-20" value="`x_{c_{1,2}} = k_4 cdot cos(-b cdot rho) + k_5 cdot sin(-b cdot rho)`" style="text;html=1;align=left;verticalAlign=middle;resizable=0;points=[];autosize=1;strokeColor=none;fillColor=none;" parent="1" vertex="1">
          <mxGeometry x="250" y="480" width="380" height="30" as="geometry" />
        </mxCell>
        <mxCell id="yCNsrDhmRWPX-1OfMMZ0-1" value="`x_R = frac {x_{c_3} + x_{c_4}}{2}`" style="text;html=1;align=left;verticalAlign=middle;resizable=0;points=[];autosize=1;strokeColor=none;fillColor=none;" parent="1" vertex="1">
          <mxGeometry x="250" y="570" width="210" height="30" as="geometry" />
        </mxCell>
        <mxCell id="GPFWntryh7rI5DP0Zuc7-1" value="`v_1 = omega cdot&amp;nbsp;(r + k_3)`" style="text;html=1;align=left;verticalAlign=middle;resizable=0;points=[];autosize=1;strokeColor=none;fillColor=none;" vertex="1" parent="1">
          <mxGeometry x="250" y="600" width="180" height="30" as="geometry" />
        </mxCell>
        <mxCell id="GPFWntryh7rI5DP0Zuc7-3" value="" style="shape=table;startSize=0;container=1;collapsible=0;childLayout=tableLayout;" vertex="1" parent="1">
          <mxGeometry x="120" y="827" width="209" height="400" as="geometry" />
        </mxCell>
        <mxCell id="GPFWntryh7rI5DP0Zuc7-4" value="" style="shape=tableRow;horizontal=0;startSize=0;swimlaneHead=0;swimlaneBody=0;strokeColor=inherit;top=0;left=0;bottom=0;right=0;collapsible=0;dropTarget=0;fillColor=none;points=[[0,0.5],[1,0.5]];portConstraint=eastwest;" vertex="1" parent="GPFWntryh7rI5DP0Zuc7-3">
          <mxGeometry width="209" height="20" as="geometry" />
        </mxCell>
        <mxCell id="GPFWntryh7rI5DP0Zuc7-5" value="`V`" style="shape=partialRectangle;html=1;whiteSpace=wrap;connectable=0;strokeColor=inherit;overflow=hidden;fillColor=none;top=0;left=0;bottom=0;right=0;pointerEvents=1;align=center;" vertex="1" parent="GPFWntryh7rI5DP0Zuc7-4">
          <mxGeometry width="40" height="20" as="geometry">
            <mxRectangle width="40" height="20" as="alternateBounds" />
          </mxGeometry>
        </mxCell>
        <mxCell id="GPFWntryh7rI5DP0Zuc7-6" value="" style="shape=partialRectangle;html=1;whiteSpace=wrap;connectable=0;strokeColor=inherit;overflow=hidden;fillColor=none;top=0;left=0;bottom=0;right=0;pointerEvents=1;align=left;" vertex="1" parent="GPFWntryh7rI5DP0Zuc7-4">
          <mxGeometry x="40" width="169" height="20" as="geometry">
            <mxRectangle width="169" height="20" as="alternateBounds" />
          </mxGeometry>
        </mxCell>
        <mxCell id="GPFWntryh7rI5DP0Zuc7-7" value="" style="shape=tableRow;horizontal=0;startSize=0;swimlaneHead=0;swimlaneBody=0;strokeColor=inherit;top=0;left=0;bottom=0;right=0;collapsible=0;dropTarget=0;fillColor=none;points=[[0,0.5],[1,0.5]];portConstraint=eastwest;" vertex="1" parent="GPFWntryh7rI5DP0Zuc7-3">
          <mxGeometry y="20" width="209" height="20" as="geometry" />
        </mxCell>
        <mxCell id="GPFWntryh7rI5DP0Zuc7-8" value="`v_i`" style="shape=partialRectangle;html=1;whiteSpace=wrap;connectable=0;strokeColor=inherit;overflow=hidden;fillColor=none;top=0;left=0;bottom=0;right=0;pointerEvents=1;align=center;" vertex="1" parent="GPFWntryh7rI5DP0Zuc7-7">
          <mxGeometry width="40" height="20" as="geometry">
            <mxRectangle width="40" height="20" as="alternateBounds" />
          </mxGeometry>
        </mxCell>
        <mxCell id="GPFWntryh7rI5DP0Zuc7-9" value="" style="shape=partialRectangle;html=1;whiteSpace=wrap;connectable=0;strokeColor=inherit;overflow=hidden;fillColor=none;top=0;left=0;bottom=0;right=0;pointerEvents=1;align=left;" vertex="1" parent="GPFWntryh7rI5DP0Zuc7-7">
          <mxGeometry x="40" width="169" height="20" as="geometry">
            <mxRectangle width="169" height="20" as="alternateBounds" />
          </mxGeometry>
        </mxCell>
        <mxCell id="GPFWntryh7rI5DP0Zuc7-10" value="" style="shape=tableRow;horizontal=0;startSize=0;swimlaneHead=0;swimlaneBody=0;strokeColor=inherit;top=0;left=0;bottom=0;right=0;collapsible=0;dropTarget=0;fillColor=none;points=[[0,0.5],[1,0.5]];portConstraint=eastwest;" vertex="1" parent="GPFWntryh7rI5DP0Zuc7-3">
          <mxGeometry y="40" width="209" height="20" as="geometry" />
        </mxCell>
        <mxCell id="GPFWntryh7rI5DP0Zuc7-11" value="`omega`" style="shape=partialRectangle;html=1;whiteSpace=wrap;connectable=0;strokeColor=inherit;overflow=hidden;fillColor=none;top=0;left=0;bottom=0;right=0;pointerEvents=1;align=center;" vertex="1" parent="GPFWntryh7rI5DP0Zuc7-10">
          <mxGeometry width="40" height="20" as="geometry">
            <mxRectangle width="40" height="20" as="alternateBounds" />
          </mxGeometry>
        </mxCell>
        <mxCell id="GPFWntryh7rI5DP0Zuc7-12" value="" style="shape=partialRectangle;html=1;whiteSpace=wrap;connectable=0;strokeColor=inherit;overflow=hidden;fillColor=none;top=0;left=0;bottom=0;right=0;pointerEvents=1;align=left;" vertex="1" parent="GPFWntryh7rI5DP0Zuc7-10">
          <mxGeometry x="40" width="169" height="20" as="geometry">
            <mxRectangle width="169" height="20" as="alternateBounds" />
          </mxGeometry>
        </mxCell>
        <mxCell id="GPFWntryh7rI5DP0Zuc7-13" value="" style="shape=tableRow;horizontal=0;startSize=0;swimlaneHead=0;swimlaneBody=0;strokeColor=inherit;top=0;left=0;bottom=0;right=0;collapsible=0;dropTarget=0;fillColor=none;points=[[0,0.5],[1,0.5]];portConstraint=eastwest;" vertex="1" parent="GPFWntryh7rI5DP0Zuc7-3">
          <mxGeometry y="60" width="209" height="20" as="geometry" />
        </mxCell>
        <mxCell id="GPFWntryh7rI5DP0Zuc7-14" value="`x_{c_i}`" style="shape=partialRectangle;html=1;whiteSpace=wrap;connectable=0;strokeColor=inherit;overflow=hidden;fillColor=none;top=0;left=0;bottom=0;right=0;pointerEvents=1;align=center;" vertex="1" parent="GPFWntryh7rI5DP0Zuc7-13">
          <mxGeometry width="40" height="20" as="geometry">
            <mxRectangle width="40" height="20" as="alternateBounds" />
          </mxGeometry>
        </mxCell>
        <mxCell id="GPFWntryh7rI5DP0Zuc7-15" value="" style="shape=partialRectangle;html=1;whiteSpace=wrap;connectable=0;strokeColor=inherit;overflow=hidden;fillColor=none;top=0;left=0;bottom=0;right=0;pointerEvents=1;align=left;" vertex="1" parent="GPFWntryh7rI5DP0Zuc7-13">
          <mxGeometry x="40" width="169" height="20" as="geometry">
            <mxRectangle width="169" height="20" as="alternateBounds" />
          </mxGeometry>
        </mxCell>
        <mxCell id="GPFWntryh7rI5DP0Zuc7-16" value="" style="shape=tableRow;horizontal=0;startSize=0;swimlaneHead=0;swimlaneBody=0;strokeColor=inherit;top=0;left=0;bottom=0;right=0;collapsible=0;dropTarget=0;fillColor=none;points=[[0,0.5],[1,0.5]];portConstraint=eastwest;" vertex="1" parent="GPFWntryh7rI5DP0Zuc7-3">
          <mxGeometry y="80" width="209" height="20" as="geometry" />
        </mxCell>
        <mxCell id="GPFWntryh7rI5DP0Zuc7-17" value="`x_R`" style="shape=partialRectangle;html=1;whiteSpace=wrap;connectable=0;strokeColor=inherit;overflow=hidden;fillColor=none;top=0;left=0;bottom=0;right=0;pointerEvents=1;align=center;" vertex="1" parent="GPFWntryh7rI5DP0Zuc7-16">
          <mxGeometry width="40" height="20" as="geometry">
            <mxRectangle width="40" height="20" as="alternateBounds" />
          </mxGeometry>
        </mxCell>
        <mxCell id="GPFWntryh7rI5DP0Zuc7-18" value="" style="shape=partialRectangle;html=1;whiteSpace=wrap;connectable=0;strokeColor=inherit;overflow=hidden;fillColor=none;top=0;left=0;bottom=0;right=0;pointerEvents=1;align=left;" vertex="1" parent="GPFWntryh7rI5DP0Zuc7-16">
          <mxGeometry x="40" width="169" height="20" as="geometry">
            <mxRectangle width="169" height="20" as="alternateBounds" />
          </mxGeometry>
        </mxCell>
        <mxCell id="GPFWntryh7rI5DP0Zuc7-19" value="" style="shape=tableRow;horizontal=0;startSize=0;swimlaneHead=0;swimlaneBody=0;strokeColor=inherit;top=0;left=0;bottom=0;right=0;collapsible=0;dropTarget=0;fillColor=none;points=[[0,0.5],[1,0.5]];portConstraint=eastwest;" vertex="1" parent="GPFWntryh7rI5DP0Zuc7-3">
          <mxGeometry y="100" width="209" height="20" as="geometry" />
        </mxCell>
        <mxCell id="GPFWntryh7rI5DP0Zuc7-20" value="`r`" style="shape=partialRectangle;html=1;whiteSpace=wrap;connectable=0;strokeColor=inherit;overflow=hidden;fillColor=none;top=0;left=0;bottom=0;right=0;pointerEvents=1;align=center;" vertex="1" parent="GPFWntryh7rI5DP0Zuc7-19">
          <mxGeometry width="40" height="20" as="geometry">
            <mxRectangle width="40" height="20" as="alternateBounds" />
          </mxGeometry>
        </mxCell>
        <mxCell id="GPFWntryh7rI5DP0Zuc7-21" value="" style="shape=partialRectangle;html=1;whiteSpace=wrap;connectable=0;strokeColor=inherit;overflow=hidden;fillColor=none;top=0;left=0;bottom=0;right=0;pointerEvents=1;align=left;" vertex="1" parent="GPFWntryh7rI5DP0Zuc7-19">
          <mxGeometry x="40" width="169" height="20" as="geometry">
            <mxRectangle width="169" height="20" as="alternateBounds" />
          </mxGeometry>
        </mxCell>
        <mxCell id="GPFWntryh7rI5DP0Zuc7-22" value="" style="shape=tableRow;horizontal=0;startSize=0;swimlaneHead=0;swimlaneBody=0;strokeColor=inherit;top=0;left=0;bottom=0;right=0;collapsible=0;dropTarget=0;fillColor=none;points=[[0,0.5],[1,0.5]];portConstraint=eastwest;" vertex="1" parent="GPFWntryh7rI5DP0Zuc7-3">
          <mxGeometry y="120" width="209" height="20" as="geometry" />
        </mxCell>
        <mxCell id="GPFWntryh7rI5DP0Zuc7-23" value="`rho`" style="shape=partialRectangle;html=1;whiteSpace=wrap;connectable=0;strokeColor=inherit;overflow=hidden;fillColor=none;top=0;left=0;bottom=0;right=0;pointerEvents=1;align=center;" vertex="1" parent="GPFWntryh7rI5DP0Zuc7-22">
          <mxGeometry width="40" height="20" as="geometry">
            <mxRectangle width="40" height="20" as="alternateBounds" />
          </mxGeometry>
        </mxCell>
        <mxCell id="GPFWntryh7rI5DP0Zuc7-24" value="" style="shape=partialRectangle;html=1;whiteSpace=wrap;connectable=0;strokeColor=inherit;overflow=hidden;fillColor=none;top=0;left=0;bottom=0;right=0;pointerEvents=1;align=left;" vertex="1" parent="GPFWntryh7rI5DP0Zuc7-22">
          <mxGeometry x="40" width="169" height="20" as="geometry">
            <mxRectangle width="169" height="20" as="alternateBounds" />
          </mxGeometry>
        </mxCell>
        <mxCell id="GPFWntryh7rI5DP0Zuc7-25" value="" style="shape=tableRow;horizontal=0;startSize=0;swimlaneHead=0;swimlaneBody=0;strokeColor=inherit;top=0;left=0;bottom=0;right=0;collapsible=0;dropTarget=0;fillColor=none;points=[[0,0.5],[1,0.5]];portConstraint=eastwest;" vertex="1" parent="GPFWntryh7rI5DP0Zuc7-3">
          <mxGeometry y="140" width="209" height="20" as="geometry" />
        </mxCell>
        <mxCell id="GPFWntryh7rI5DP0Zuc7-26" value="`beta`" style="shape=partialRectangle;html=1;whiteSpace=wrap;connectable=0;strokeColor=inherit;overflow=hidden;fillColor=none;top=0;left=0;bottom=0;right=0;pointerEvents=1;align=center;" vertex="1" parent="GPFWntryh7rI5DP0Zuc7-25">
          <mxGeometry width="40" height="20" as="geometry">
            <mxRectangle width="40" height="20" as="alternateBounds" />
          </mxGeometry>
        </mxCell>
        <mxCell id="GPFWntryh7rI5DP0Zuc7-27" value="" style="shape=partialRectangle;html=1;whiteSpace=wrap;connectable=0;strokeColor=inherit;overflow=hidden;fillColor=none;top=0;left=0;bottom=0;right=0;pointerEvents=1;align=left;" vertex="1" parent="GPFWntryh7rI5DP0Zuc7-25">
          <mxGeometry x="40" width="169" height="20" as="geometry">
            <mxRectangle width="169" height="20" as="alternateBounds" />
          </mxGeometry>
        </mxCell>
        <mxCell id="GPFWntryh7rI5DP0Zuc7-28" value="" style="shape=tableRow;horizontal=0;startSize=0;swimlaneHead=0;swimlaneBody=0;strokeColor=inherit;top=0;left=0;bottom=0;right=0;collapsible=0;dropTarget=0;fillColor=none;points=[[0,0.5],[1,0.5]];portConstraint=eastwest;" vertex="1" parent="GPFWntryh7rI5DP0Zuc7-3">
          <mxGeometry y="160" width="209" height="20" as="geometry" />
        </mxCell>
        <mxCell id="GPFWntryh7rI5DP0Zuc7-29" value="`b`" style="shape=partialRectangle;html=1;whiteSpace=wrap;connectable=0;strokeColor=inherit;overflow=hidden;fillColor=none;top=0;left=0;bottom=0;right=0;pointerEvents=1;align=center;" vertex="1" parent="GPFWntryh7rI5DP0Zuc7-28">
          <mxGeometry width="40" height="20" as="geometry">
            <mxRectangle width="40" height="20" as="alternateBounds" />
          </mxGeometry>
        </mxCell>
        <mxCell id="GPFWntryh7rI5DP0Zuc7-30" value="Wheel Configuration" style="shape=partialRectangle;html=1;whiteSpace=wrap;connectable=0;strokeColor=inherit;overflow=hidden;fillColor=none;top=0;left=0;bottom=0;right=0;pointerEvents=1;align=left;" vertex="1" parent="GPFWntryh7rI5DP0Zuc7-28">
          <mxGeometry x="40" width="169" height="20" as="geometry">
            <mxRectangle width="169" height="20" as="alternateBounds" />
          </mxGeometry>
        </mxCell>
        <mxCell id="GPFWntryh7rI5DP0Zuc7-31" value="" style="shape=tableRow;horizontal=0;startSize=0;swimlaneHead=0;swimlaneBody=0;strokeColor=inherit;top=0;left=0;bottom=0;right=0;collapsible=0;dropTarget=0;fillColor=none;points=[[0,0.5],[1,0.5]];portConstraint=eastwest;" vertex="1" parent="GPFWntryh7rI5DP0Zuc7-3">
          <mxGeometry y="180" width="209" height="20" as="geometry" />
        </mxCell>
        <mxCell id="GPFWntryh7rI5DP0Zuc7-32" value="`k_i`" style="shape=partialRectangle;html=1;whiteSpace=wrap;connectable=0;strokeColor=inherit;overflow=hidden;fillColor=none;top=0;left=0;bottom=0;right=0;pointerEvents=1;align=center;" vertex="1" parent="GPFWntryh7rI5DP0Zuc7-31">
          <mxGeometry width="40" height="20" as="geometry">
            <mxRectangle width="40" height="20" as="alternateBounds" />
          </mxGeometry>
        </mxCell>
        <mxCell id="GPFWntryh7rI5DP0Zuc7-33" value="" style="shape=partialRectangle;html=1;whiteSpace=wrap;connectable=0;strokeColor=inherit;overflow=hidden;fillColor=none;top=0;left=0;bottom=0;right=0;pointerEvents=1;align=left;" vertex="1" parent="GPFWntryh7rI5DP0Zuc7-31">
          <mxGeometry x="40" width="169" height="20" as="geometry">
            <mxRectangle width="169" height="20" as="alternateBounds" />
          </mxGeometry>
        </mxCell>
        <mxCell id="GPFWntryh7rI5DP0Zuc7-34" value="" style="shape=tableRow;horizontal=0;startSize=0;swimlaneHead=0;swimlaneBody=0;strokeColor=inherit;top=0;left=0;bottom=0;right=0;collapsible=0;dropTarget=0;fillColor=none;points=[[0,0.5],[1,0.5]];portConstraint=eastwest;" vertex="1" parent="GPFWntryh7rI5DP0Zuc7-3">
          <mxGeometry y="200" width="209" height="20" as="geometry" />
        </mxCell>
        <mxCell id="GPFWntryh7rI5DP0Zuc7-35" value="`theta`" style="shape=partialRectangle;html=1;whiteSpace=wrap;connectable=0;strokeColor=inherit;overflow=hidden;fillColor=none;top=0;left=0;bottom=0;right=0;pointerEvents=1;align=center;" vertex="1" parent="GPFWntryh7rI5DP0Zuc7-34">
          <mxGeometry width="40" height="20" as="geometry">
            <mxRectangle width="40" height="20" as="alternateBounds" />
          </mxGeometry>
        </mxCell>
        <mxCell id="GPFWntryh7rI5DP0Zuc7-36" value="" style="shape=partialRectangle;html=1;whiteSpace=wrap;connectable=0;strokeColor=inherit;overflow=hidden;fillColor=none;top=0;left=0;bottom=0;right=0;pointerEvents=1;align=left;" vertex="1" parent="GPFWntryh7rI5DP0Zuc7-34">
          <mxGeometry x="40" width="169" height="20" as="geometry">
            <mxRectangle width="169" height="20" as="alternateBounds" />
          </mxGeometry>
        </mxCell>
        <mxCell id="GPFWntryh7rI5DP0Zuc7-37" value="" style="shape=tableRow;horizontal=0;startSize=0;swimlaneHead=0;swimlaneBody=0;strokeColor=inherit;top=0;left=0;bottom=0;right=0;collapsible=0;dropTarget=0;fillColor=none;points=[[0,0.5],[1,0.5]];portConstraint=eastwest;" vertex="1" parent="GPFWntryh7rI5DP0Zuc7-3">
          <mxGeometry y="220" width="209" height="20" as="geometry" />
        </mxCell>
        <mxCell id="GPFWntryh7rI5DP0Zuc7-38" value="" style="shape=partialRectangle;html=1;whiteSpace=wrap;connectable=0;strokeColor=inherit;overflow=hidden;fillColor=none;top=0;left=0;bottom=0;right=0;pointerEvents=1;align=center;" vertex="1" parent="GPFWntryh7rI5DP0Zuc7-37">
          <mxGeometry width="40" height="20" as="geometry">
            <mxRectangle width="40" height="20" as="alternateBounds" />
          </mxGeometry>
        </mxCell>
        <mxCell id="GPFWntryh7rI5DP0Zuc7-39" value="" style="shape=partialRectangle;html=1;whiteSpace=wrap;connectable=0;strokeColor=inherit;overflow=hidden;fillColor=none;top=0;left=0;bottom=0;right=0;pointerEvents=1;align=left;" vertex="1" parent="GPFWntryh7rI5DP0Zuc7-37">
          <mxGeometry x="40" width="169" height="20" as="geometry">
            <mxRectangle width="169" height="20" as="alternateBounds" />
          </mxGeometry>
        </mxCell>
        <mxCell id="GPFWntryh7rI5DP0Zuc7-40" value="" style="shape=tableRow;horizontal=0;startSize=0;swimlaneHead=0;swimlaneBody=0;strokeColor=inherit;top=0;left=0;bottom=0;right=0;collapsible=0;dropTarget=0;fillColor=none;points=[[0,0.5],[1,0.5]];portConstraint=eastwest;" vertex="1" parent="GPFWntryh7rI5DP0Zuc7-3">
          <mxGeometry y="240" width="209" height="20" as="geometry" />
        </mxCell>
        <mxCell id="GPFWntryh7rI5DP0Zuc7-41" value="" style="shape=partialRectangle;html=1;whiteSpace=wrap;connectable=0;strokeColor=inherit;overflow=hidden;fillColor=none;top=0;left=0;bottom=0;right=0;pointerEvents=1;align=center;" vertex="1" parent="GPFWntryh7rI5DP0Zuc7-40">
          <mxGeometry width="40" height="20" as="geometry">
            <mxRectangle width="40" height="20" as="alternateBounds" />
          </mxGeometry>
        </mxCell>
        <mxCell id="GPFWntryh7rI5DP0Zuc7-42" value="" style="shape=partialRectangle;html=1;whiteSpace=wrap;connectable=0;strokeColor=inherit;overflow=hidden;fillColor=none;top=0;left=0;bottom=0;right=0;pointerEvents=1;align=left;" vertex="1" parent="GPFWntryh7rI5DP0Zuc7-40">
          <mxGeometry x="40" width="169" height="20" as="geometry">
            <mxRectangle width="169" height="20" as="alternateBounds" />
          </mxGeometry>
        </mxCell>
        <mxCell id="GPFWntryh7rI5DP0Zuc7-43" value="" style="shape=tableRow;horizontal=0;startSize=0;swimlaneHead=0;swimlaneBody=0;strokeColor=inherit;top=0;left=0;bottom=0;right=0;collapsible=0;dropTarget=0;fillColor=none;points=[[0,0.5],[1,0.5]];portConstraint=eastwest;" vertex="1" parent="GPFWntryh7rI5DP0Zuc7-3">
          <mxGeometry y="260" width="209" height="20" as="geometry" />
        </mxCell>
        <mxCell id="GPFWntryh7rI5DP0Zuc7-44" value="" style="shape=partialRectangle;html=1;whiteSpace=wrap;connectable=0;strokeColor=inherit;overflow=hidden;fillColor=none;top=0;left=0;bottom=0;right=0;pointerEvents=1;align=center;" vertex="1" parent="GPFWntryh7rI5DP0Zuc7-43">
          <mxGeometry width="40" height="20" as="geometry">
            <mxRectangle width="40" height="20" as="alternateBounds" />
          </mxGeometry>
        </mxCell>
        <mxCell id="GPFWntryh7rI5DP0Zuc7-45" value="" style="shape=partialRectangle;html=1;whiteSpace=wrap;connectable=0;strokeColor=inherit;overflow=hidden;fillColor=none;top=0;left=0;bottom=0;right=0;pointerEvents=1;align=left;" vertex="1" parent="GPFWntryh7rI5DP0Zuc7-43">
          <mxGeometry x="40" width="169" height="20" as="geometry">
            <mxRectangle width="169" height="20" as="alternateBounds" />
          </mxGeometry>
        </mxCell>
        <mxCell id="GPFWntryh7rI5DP0Zuc7-46" value="" style="shape=tableRow;horizontal=0;startSize=0;swimlaneHead=0;swimlaneBody=0;strokeColor=inherit;top=0;left=0;bottom=0;right=0;collapsible=0;dropTarget=0;fillColor=none;points=[[0,0.5],[1,0.5]];portConstraint=eastwest;" vertex="1" parent="GPFWntryh7rI5DP0Zuc7-3">
          <mxGeometry y="280" width="209" height="20" as="geometry" />
        </mxCell>
        <mxCell id="GPFWntryh7rI5DP0Zuc7-47" value="" style="shape=partialRectangle;html=1;whiteSpace=wrap;connectable=0;strokeColor=inherit;overflow=hidden;fillColor=none;top=0;left=0;bottom=0;right=0;pointerEvents=1;align=center;" vertex="1" parent="GPFWntryh7rI5DP0Zuc7-46">
          <mxGeometry width="40" height="20" as="geometry">
            <mxRectangle width="40" height="20" as="alternateBounds" />
          </mxGeometry>
        </mxCell>
        <mxCell id="GPFWntryh7rI5DP0Zuc7-48" value="" style="shape=partialRectangle;html=1;whiteSpace=wrap;connectable=0;strokeColor=inherit;overflow=hidden;fillColor=none;top=0;left=0;bottom=0;right=0;pointerEvents=1;align=left;" vertex="1" parent="GPFWntryh7rI5DP0Zuc7-46">
          <mxGeometry x="40" width="169" height="20" as="geometry">
            <mxRectangle width="169" height="20" as="alternateBounds" />
          </mxGeometry>
        </mxCell>
        <mxCell id="GPFWntryh7rI5DP0Zuc7-49" value="" style="shape=tableRow;horizontal=0;startSize=0;swimlaneHead=0;swimlaneBody=0;strokeColor=inherit;top=0;left=0;bottom=0;right=0;collapsible=0;dropTarget=0;fillColor=none;points=[[0,0.5],[1,0.5]];portConstraint=eastwest;" vertex="1" parent="GPFWntryh7rI5DP0Zuc7-3">
          <mxGeometry y="300" width="209" height="20" as="geometry" />
        </mxCell>
        <mxCell id="GPFWntryh7rI5DP0Zuc7-50" value="" style="shape=partialRectangle;html=1;whiteSpace=wrap;connectable=0;strokeColor=inherit;overflow=hidden;fillColor=none;top=0;left=0;bottom=0;right=0;pointerEvents=1;align=center;" vertex="1" parent="GPFWntryh7rI5DP0Zuc7-49">
          <mxGeometry width="40" height="20" as="geometry">
            <mxRectangle width="40" height="20" as="alternateBounds" />
          </mxGeometry>
        </mxCell>
        <mxCell id="GPFWntryh7rI5DP0Zuc7-51" value="" style="shape=partialRectangle;html=1;whiteSpace=wrap;connectable=0;strokeColor=inherit;overflow=hidden;fillColor=none;top=0;left=0;bottom=0;right=0;pointerEvents=1;align=left;" vertex="1" parent="GPFWntryh7rI5DP0Zuc7-49">
          <mxGeometry x="40" width="169" height="20" as="geometry">
            <mxRectangle width="169" height="20" as="alternateBounds" />
          </mxGeometry>
        </mxCell>
        <mxCell id="GPFWntryh7rI5DP0Zuc7-52" value="" style="shape=tableRow;horizontal=0;startSize=0;swimlaneHead=0;swimlaneBody=0;strokeColor=inherit;top=0;left=0;bottom=0;right=0;collapsible=0;dropTarget=0;fillColor=none;points=[[0,0.5],[1,0.5]];portConstraint=eastwest;" vertex="1" parent="GPFWntryh7rI5DP0Zuc7-3">
          <mxGeometry y="320" width="209" height="20" as="geometry" />
        </mxCell>
        <mxCell id="GPFWntryh7rI5DP0Zuc7-53" value="" style="shape=partialRectangle;html=1;whiteSpace=wrap;connectable=0;strokeColor=inherit;overflow=hidden;fillColor=none;top=0;left=0;bottom=0;right=0;pointerEvents=1;align=center;" vertex="1" parent="GPFWntryh7rI5DP0Zuc7-52">
          <mxGeometry width="40" height="20" as="geometry">
            <mxRectangle width="40" height="20" as="alternateBounds" />
          </mxGeometry>
        </mxCell>
        <mxCell id="GPFWntryh7rI5DP0Zuc7-54" value="" style="shape=partialRectangle;html=1;whiteSpace=wrap;connectable=0;strokeColor=inherit;overflow=hidden;fillColor=none;top=0;left=0;bottom=0;right=0;pointerEvents=1;align=left;" vertex="1" parent="GPFWntryh7rI5DP0Zuc7-52">
          <mxGeometry x="40" width="169" height="20" as="geometry">
            <mxRectangle width="169" height="20" as="alternateBounds" />
          </mxGeometry>
        </mxCell>
        <mxCell id="GPFWntryh7rI5DP0Zuc7-55" value="" style="shape=tableRow;horizontal=0;startSize=0;swimlaneHead=0;swimlaneBody=0;strokeColor=inherit;top=0;left=0;bottom=0;right=0;collapsible=0;dropTarget=0;fillColor=none;points=[[0,0.5],[1,0.5]];portConstraint=eastwest;" vertex="1" parent="GPFWntryh7rI5DP0Zuc7-3">
          <mxGeometry y="340" width="209" height="20" as="geometry" />
        </mxCell>
        <mxCell id="GPFWntryh7rI5DP0Zuc7-56" value="" style="shape=partialRectangle;html=1;whiteSpace=wrap;connectable=0;strokeColor=inherit;overflow=hidden;fillColor=none;top=0;left=0;bottom=0;right=0;pointerEvents=1;align=center;" vertex="1" parent="GPFWntryh7rI5DP0Zuc7-55">
          <mxGeometry width="40" height="20" as="geometry">
            <mxRectangle width="40" height="20" as="alternateBounds" />
          </mxGeometry>
        </mxCell>
        <mxCell id="GPFWntryh7rI5DP0Zuc7-57" value="" style="shape=partialRectangle;html=1;whiteSpace=wrap;connectable=0;strokeColor=inherit;overflow=hidden;fillColor=none;top=0;left=0;bottom=0;right=0;pointerEvents=1;align=left;" vertex="1" parent="GPFWntryh7rI5DP0Zuc7-55">
          <mxGeometry x="40" width="169" height="20" as="geometry">
            <mxRectangle width="169" height="20" as="alternateBounds" />
          </mxGeometry>
        </mxCell>
        <mxCell id="GPFWntryh7rI5DP0Zuc7-58" value="" style="shape=tableRow;horizontal=0;startSize=0;swimlaneHead=0;swimlaneBody=0;strokeColor=inherit;top=0;left=0;bottom=0;right=0;collapsible=0;dropTarget=0;fillColor=none;points=[[0,0.5],[1,0.5]];portConstraint=eastwest;" vertex="1" parent="GPFWntryh7rI5DP0Zuc7-3">
          <mxGeometry y="360" width="209" height="20" as="geometry" />
        </mxCell>
        <mxCell id="GPFWntryh7rI5DP0Zuc7-59" value="" style="shape=partialRectangle;html=1;whiteSpace=wrap;connectable=0;strokeColor=inherit;overflow=hidden;fillColor=none;top=0;left=0;bottom=0;right=0;pointerEvents=1;align=center;" vertex="1" parent="GPFWntryh7rI5DP0Zuc7-58">
          <mxGeometry width="40" height="20" as="geometry">
            <mxRectangle width="40" height="20" as="alternateBounds" />
          </mxGeometry>
        </mxCell>
        <mxCell id="GPFWntryh7rI5DP0Zuc7-60" value="" style="shape=partialRectangle;html=1;whiteSpace=wrap;connectable=0;strokeColor=inherit;overflow=hidden;fillColor=none;top=0;left=0;bottom=0;right=0;pointerEvents=1;align=left;" vertex="1" parent="GPFWntryh7rI5DP0Zuc7-58">
          <mxGeometry x="40" width="169" height="20" as="geometry">
            <mxRectangle width="169" height="20" as="alternateBounds" />
          </mxGeometry>
        </mxCell>
        <mxCell id="GPFWntryh7rI5DP0Zuc7-61" value="" style="shape=tableRow;horizontal=0;startSize=0;swimlaneHead=0;swimlaneBody=0;strokeColor=inherit;top=0;left=0;bottom=0;right=0;collapsible=0;dropTarget=0;fillColor=none;points=[[0,0.5],[1,0.5]];portConstraint=eastwest;" vertex="1" parent="GPFWntryh7rI5DP0Zuc7-3">
          <mxGeometry y="380" width="209" height="20" as="geometry" />
        </mxCell>
        <mxCell id="GPFWntryh7rI5DP0Zuc7-62" value="" style="shape=partialRectangle;html=1;whiteSpace=wrap;connectable=0;strokeColor=inherit;overflow=hidden;fillColor=none;top=0;left=0;bottom=0;right=0;pointerEvents=1;align=center;" vertex="1" parent="GPFWntryh7rI5DP0Zuc7-61">
          <mxGeometry width="40" height="20" as="geometry">
            <mxRectangle width="40" height="20" as="alternateBounds" />
          </mxGeometry>
        </mxCell>
        <mxCell id="GPFWntryh7rI5DP0Zuc7-63" value="" style="shape=partialRectangle;html=1;whiteSpace=wrap;connectable=0;strokeColor=inherit;overflow=hidden;fillColor=none;top=0;left=0;bottom=0;right=0;pointerEvents=1;align=left;" vertex="1" parent="GPFWntryh7rI5DP0Zuc7-61">
          <mxGeometry x="40" width="169" height="20" as="geometry">
            <mxRectangle width="169" height="20" as="alternateBounds" />
          </mxGeometry>
        </mxCell>
      </root>
    </mxGraphModel>
  </diagram>
</mxfile>
